<svg width="57" height="38" viewBox="0 0 57 38" fill="none" xmlns="http://www.w3.org/2000/svg">
<path d="M56.8666 14.9954C57.382 9.55771 53.8347 4.86856 47.0493 2.08476C47.6928 2.63805 48.2762 3.26024 48.7896 3.94062C49.2563 4.5734 49.651 5.25829 49.966 5.98208C52.9979 8.02972 55.7266 11.2651 54.6169 16.0656C53.0888 22.6663 43.9446 25.5738 36.1101 24.9676C32.9933 24.7263 30.4465 24.417 28.1968 24.151C25.2965 23.7401 22.3744 23.5087 19.4467 23.4582C18.4947 23.4582 17.5063 23.4891 16.4633 23.5633C10.5571 23.984 6.24574 23.155 3.99606 21.1507C3.45381 20.6733 3.01278 20.0879 2.69998 19.4306C2.38718 18.7732 2.20919 18.0576 2.17691 17.3276C1.95862 14.0118 3.71713 11.5002 7.41 9.86702C9.09841 9.16562 10.8304 8.57872 12.5946 8.11014C14.6922 7.56983 16.7395 6.84327 18.713 5.93877C21.3492 4.61836 24.113 3.58173 26.9598 2.84566C28.0341 1.6917 29.2906 0.729794 30.6769 0C26.206 0.625679 21.8644 1.98788 17.8216 4.03342C15.9556 4.88697 14.0199 5.57214 12.0367 6.08106C10.179 6.57465 8.35574 7.19466 6.57926 7.93692C1.05511 10.3867 3.61432e-08 14.2716 0.109149 17.2039L0 16.9936C0 16.9936 0.509362 22.5612 2.59532 26.112C3.93543 28.4009 7.44638 31.6487 9.12606 32.787C14.4926 36.4368 31.8533 40.8291 44.4721 34.5191C54.0833 29.7062 57 17.6122 57 14.2345C56.9722 14.4909 56.9276 14.7451 56.8666 14.9954Z" fill="#46A857"/>
<path d="M25.3369 8.69873C24.8904 9.70478 22.9237 12.772 25.6144 14.9988C26.9477 16.1153 32.2084 17.4035 37.4089 17.4035C42.6093 17.4035 47.6952 16.1092 48.8113 12.1524C50.9228 4.64997 43.0558 3.88764e-05 37.433 3.88764e-05C37.0864 -0.000964811 36.74 0.0174667 36.3953 0.0552493C30.7726 0.6871 27.376 4.07946 25.3369 8.69873Z" fill="#46A857"/>
</svg>
